<?xml version="1.0" encoding="UTF-8" standalone="no"?>
<!-- Created with Inkscape (http://www.inkscape.org/) -->

<svg
   xmlns:dc="http://purl.org/dc/elements/1.1/"
   xmlns:cc="http://creativecommons.org/ns#"
   xmlns:rdf="http://www.w3.org/1999/02/22-rdf-syntax-ns#"
   xmlns:svg="http://www.w3.org/2000/svg"
   xmlns="http://www.w3.org/2000/svg"
   version="1.1"
   width="538.58264"
   height="569.40942"
   id="svg3193">
  <defs
     id="defs3195" />
  <metadata
     id="metadata3198">
    <rdf:RDF>
      <cc:Work
         rdf:about="">
        <dc:format>image/svg+xml</dc:format>
        <dc:type
           rdf:resource="http://purl.org/dc/dcmitype/StillImage" />
        <dc:title></dc:title>
      </cc:Work>
    </rdf:RDF>
  </metadata>
  <g
     transform="translate(-120.66153,-257.90619)"
     id="layer1">
    <g
       transform="matrix(8.3333696,0,0,8.3333696,-2958.47,-3845.786)"
       id="g3306">
      <g
         transform="matrix(1.25,0,0,-1.25,383.90037,521.0509)"
         id="g3033">
        <path
           d="m 0,0 c 0,0 1.25,2.459 2.895,2.727 1.646,0.267 3.173,-0.812 3.173,-0.812 0,0 -0.158,-2.096 -2.799,-2.838 C 1.446,-1.435 0,0 0,0"
           id="path3035"
           style="fill:#007f55;fill-opacity:1;fill-rule:nonzero;stroke:none" />
      </g>
      <g
         transform="matrix(1.25,0,0,-1.25,394.47675,496.43415)"
         id="g3037">
        <path
           d="m 0,0 c 1.491,-1.019 2.225,-1.943 2.879,-3.627 0.682,-1.754 0.275,-4.818 0.275,-4.818 0,0 -2.855,1.542 -3.57,3.297 C -1.176,-3.283 -1.05,-1.719 0,0"
           id="path3039"
           style="fill:#007f55;fill-opacity:1;fill-rule:nonzero;stroke:none" />
      </g>
      <g
         transform="matrix(1.25,0,0,-1.25,391.28837,506.0564)"
         id="g3041">
        <path
           d="M 0,0 C 1.618,0.106 2.491,0.056 3.896,-1.452 5.303,-2.96 5.045,-6.95 5.045,-6.95 c 0,0 -2.827,0.583 -4.283,2.347 C -0.694,-2.839 -0.499,-1.75 0,0"
           id="path3043"
           style="fill:#007f55;fill-opacity:1;fill-rule:nonzero;stroke:none" />
      </g>
      <g
         transform="matrix(1.25,0,0,-1.25,385.02824,501.84177)"
         id="g3045">
        <path
           d="m 0,0 c 1.058,-0.17 1.696,-0.514 2.417,-1.307 0.86,-0.943 1.074,-3.091 1.074,-3.091 0,0 -1.908,0.491 -2.651,1.392 C 0.067,-2.066 -0.174,-1.205 0,0"
           id="path3047"
           style="fill:#007f55;fill-opacity:1;fill-rule:nonzero;stroke:none" />
      </g>
      <g
         transform="matrix(1.25,0,0,-1.25,386.96287,497.20552)"
         id="g3049">
        <path
           d="m 0,0 c -0.428,-1.598 -0.39,-2.668 0.767,-4.173 1.48,-1.924 4.149,-2.048 4.149,-2.048 0,0 -0.322,2.613 -1.348,3.99 C 2.541,-0.855 1.603,-0.352 0,0"
           id="path3051"
           style="fill:#007f55;fill-opacity:1;fill-rule:nonzero;stroke:none" />
      </g>
      <g
         transform="matrix(1.25,0,0,-1.25,384.27237,507.23452)"
         id="g3053">
        <path
           d="m 0,0 c 1.355,0.151 2.269,-0.08 3.389,-0.857 1.255,-0.87 2.082,-3.315 2.082,-3.315 0,0 -2.949,-0.091 -4.15,1.072 C 0.377,-2.186 0.005,-1.314 0,0"
           id="path3055"
           style="fill:#007f55;fill-opacity:1;fill-rule:nonzero;stroke:none" />
      </g>
      <g
         transform="matrix(1.25,0,0,-1.25,390.61737,494.33577)"
         id="g3057">
        <path
           d="M 0,0 C 0.933,-0.309 1.475,-0.885 1.727,-1.834 1.951,-2.679 1.331,-4.04 1.331,-4.04 c 0,0 -1.283,0.744 -1.601,1.554 C -0.626,-1.578 -0.543,-0.81 0,0"
           id="path3059"
           style="fill:#007f55;fill-opacity:1;fill-rule:nonzero;stroke:none" />
      </g>
      <g
         transform="matrix(1.25,0,0,-1.25,402.06937,492.85965)"
         id="g3061">
        <path
           d="M 0,0 C 0,0 0.878,-0.74 0.966,-1.396 1.072,-2.178 0.107,-3.23 0.107,-3.23 c 0,0 -1.121,0.933 -1.082,1.727 C -0.941,-0.805 0,0 0,0"
           id="path3063"
           style="fill:#007f55;fill-opacity:1;fill-rule:nonzero;stroke:none" />
      </g>
      <g
         transform="matrix(1.25,0,0,-1.25,407.32549,500.53165)"
         id="g3065">
        <path
           d="m 0,0 c 0,0 2.539,0.42 3.51,1.036 0.97,0.615 1.407,3.097 1.407,3.097 0,0 -2.244,0.129 -3.272,-0.71 C 0.617,2.585 0,0 0,0"
           id="path3067"
           style="fill:#007f55;fill-opacity:1;fill-rule:nonzero;stroke:none" />
      </g>
      <g
         transform="matrix(1.25,0,0,-1.25,414.32637,500.26327)"
         id="g3069">
        <path
           d="m 0,0 c 0.299,-2.126 -0.096,-3.621 -1.407,-5.321 -1.417,-1.839 -5.276,-2.758 -5.276,-2.758 0,0 -0.108,3.912 1.333,5.668 C -3.898,-0.642 -2.287,0.084 0,0"
           id="path3071"
           style="fill:#007f55;fill-opacity:1;fill-rule:nonzero;stroke:none" />
      </g>
      <g
         transform="matrix(1.25,0,0,-1.25,413.47737,498.7679)"
         id="g3073">
        <path
           d="M 0,0 C 0.026,0.024 1.263,-0.345 1.971,-0.044 2.696,0.265 3.238,1.185 3.322,1.457 3.05,1.542 2.155,1.791 1.477,1.547 0.693,1.263 0.025,-0.001 0,0"
           id="path3075"
           style="fill:#007f55;fill-opacity:1;fill-rule:nonzero;stroke:none" />
      </g>
      <g
         transform="matrix(1.25,0,0,-1.25,405.01575,519.38627)"
         id="g3077">
        <path
           d="M 0,0 C 0.448,-0.041 4.034,1.097 5.615,3.014 7.127,4.849 7.018,5.558 7.019,7.327 4.705,7.772 2.853,7.13 1.311,5.348 -0.095,3.724 -0.208,1.181 0,0"
           id="path3079"
           style="fill:#007f55;fill-opacity:1;fill-rule:nonzero;stroke:none" />
      </g>
      <g
         transform="matrix(1.25,0,0,-1.25,413.0325,517.76215)"
         id="g3081">
        <path
           d="M 0,0 C -0.002,-0.05 0.344,2.447 1.346,3.524 2.977,5.276 3.703,5.14 5.348,4.945 5.402,3.347 4.925,2.238 3.728,1.178 2.586,0.167 0.05,-0.002 0,0"
           id="path3083"
           style="fill:#007f55;fill-opacity:1;fill-rule:nonzero;stroke:none" />
      </g>
      <g
         transform="matrix(1.25,0,0,-1.25,413.11924,522.57277)"
         id="g3085">
        <path
           d="m 0,0 c -0.665,-0.142 -1.323,-0.298 -1.914,-0.467 -0.061,-0.646 -0.125,-2.348 -0.135,-3.561 -0.019,-2.287 0.059,-4.31 0.429,-6.567 0.43,2.371 0.269,4.334 0.752,6.782 C -0.631,-2.608 -0.17,-0.656 0,0 m -7.873,0.714 c 2.08,0.833 3.676,1.026 6.2,1.562 2.443,0.519 3.815,0.669 6.349,0.835 L 4.625,0.929 c 0,0 -0.872,-0.257 -1.942,-0.43 -0.31,-0.828 -1.208,-3.496 -1.61,-5.815 -0.424,-2.45 -0.428,-3.875 -0.429,-6.361 -0.001,-1.261 0.107,-3.23 0.107,-3.23 l -3.883,-1.332 c 0,0 -0.994,5.079 -1.018,7.718 -0.022,2.364 -0.191,6.358 -0.163,7.186 -0.644,-0.261 -1.003,-0.211 -1.619,-0.429 -0.745,-0.264 -1.372,-0.635 -1.834,-0.859 0.153,-6.657 1.512,-13.689 1.512,-13.689 0,0 -2.247,-0.217 -3.14,-0.186 -1.256,0.044 -3.007,0.452 -3.007,0.452 0,0 -0.201,4.376 -0.107,7.062 0.156,4.45 0.484,7.75 0.653,10.996 -0.548,0.319 -1.867,0.951 -1.867,0.951 -0.662,-1.517 -1.031,-2.244 -1.479,-3.752 -0.715,-2.405 -0.67,-3.869 -0.966,-6.361 -0.394,-3.305 -0.645,-8.509 -0.645,-8.509 l -3.096,1.326 c 0,0 0.252,3.859 0.833,7.183 0.661,3.782 1.236,6.773 2.478,10.987 -0.919,0.517 -1.471,0.769 -2.478,1.082 -1.727,0.537 -3.34,0.541 -3.883,0.644 l 0.107,2.264 c 2.795,-0.53 4.364,-0.887 7.113,-1.619 1.595,-0.425 2.837,-0.685 4.066,-1.175 0.319,2.251 0.739,4.368 1.305,7.289 0.144,0.742 0.328,1.91 0.554,3.128 -0.318,0.764 -0.641,1.144 -1.076,1.861 -1.568,2.582 -4.527,6.286 -4.527,6.286 l 3.23,-0.149 c 1.1,-1.173 1.185,-1.61 1.982,-2.608 0.642,-0.803 1.352,-1.475 1.686,-2.026 1.007,2.796 2.049,4.849 2.049,4.849 l 2.371,-0.322 c 0,0 -1.924,-3.333 -2.693,-7.65 C -7.626,11.005 -8.063,4.325 -7.873,0.714"
           id="path3087"
           style="fill:#007f55;fill-opacity:1;fill-rule:nonzero;stroke:none" />
      </g>
      <g
         transform="matrix(1.25,0,0,-1.25,415.02287,511.1289)"
         id="g3089">
        <path
           d="M 0,0 C -0.022,0.02 -0.736,2.407 -0.02,3.629 0.758,4.958 2.005,5.564 3.532,5.355 3.726,4.008 3.513,3.08 2.748,1.953 2.01,0.865 0.005,-0.009 0,0"
           id="path3091"
           style="fill:#007f55;fill-opacity:1;fill-rule:nonzero;stroke:none" />
      </g>
      <g
         transform="matrix(1.25,0,0,-1.25,374.06562,555.1269)"
         id="g3093">
        <path
           d="m 0,0 c 0,0.459 -0.402,1.063 -1.429,1.063 -0.538,0 -1.177,0 -1.888,-0.05 l 0,-0.216 c 0.093,0.021 0.143,0.021 0.222,0.021 0.079,0 0.144,0 0.252,-0.014 l -0.029,-4.638 -0.445,0 0,-0.215 0.56,0 c 2.017,0 2.85,0.703 2.85,1.364 0,0.689 -0.632,1.12 -1.249,1.421 C -0.266,-0.89 0,-0.517 0,0 m -0.775,-0.23 c 0,-0.545 -0.395,-0.861 -0.74,-1.055 -0.302,-0.173 -0.366,-0.208 -0.373,-0.288 -0.008,-0.064 0.115,-0.122 0.351,-0.222 0.747,-0.316 0.855,-0.704 0.855,-1.063 0,-0.574 -0.431,-0.775 -1.479,-0.933 l 0.072,4.595 0.186,0 c 0.625,0 1.128,-0.373 1.128,-1.034"
           id="path3095"
           style="fill:#231f20;fill-opacity:1;fill-rule:nonzero;stroke:none" />
      </g>
      <g
         transform="matrix(1.25,0,0,-1.25,382.152,560.07202)"
         id="g3097">
        <path
           d="m 0,0 c -0.043,0.158 -0.144,0.352 -0.237,0.531 l -1.644,3.31 C -2.054,4.186 -2.305,4.703 -2.384,5.062 -2.599,5.026 -2.75,5.019 -3.016,5.019 -3.777,3.238 -5.256,1.587 -6.132,-0.093 l 0.697,0 1.335,2.247 c 0.043,0.072 0.129,0.165 0.295,0.165 l 0.926,0 c 0.158,0 0.668,0.014 0.847,0.108 l 1.278,-2.563 C -0.625,-0.079 -0.23,-0.007 0,0 m -2.097,2.642 c -0.28,-0.086 -0.797,-0.107 -1.191,-0.107 -0.288,0 -0.496,0 -0.496,0.093 0,0.115 0.452,0.912 0.941,1.644 l 0.746,-1.63 z"
           id="path3099"
           style="fill:#231f20;fill-opacity:1;fill-rule:nonzero;stroke:none" />
      </g>
      <g
         transform="matrix(1.25,0,0,-1.25,382.76412,553.79852)"
         id="g3101">
        <path
           d="m 0,0 0.725,0.129 c 0.833,-1.299 2.729,-2.843 3.949,-4.193 -0.021,0.438 -0.028,1.17 -0.028,2.441 0,0.46 0,1.048 -0.022,1.537 0.223,0.043 0.438,0.1 0.653,0.172 -0.036,-1.206 -0.071,-2.671 -0.071,-3.267 0,-0.703 0.007,-1.271 0.158,-1.658 -0.202,-0.115 -0.395,-0.237 -0.582,-0.359 -1.407,1.45 -2.944,2.8 -4.121,4.207 0,-0.215 0.021,-0.438 0.021,-0.675 0,-1.084 -0.143,-2.312 -0.108,-3.403 -0.172,-0.043 -0.438,-0.101 -0.646,-0.173 0.05,1.25 0.18,2.492 0.151,3.741 C 0.079,-0.718 0.05,-0.294 0,0"
           id="path3103"
           style="fill:#231f20;fill-opacity:1;fill-rule:nonzero;stroke:none" />
      </g>
      <g
         transform="matrix(1.25,0,0,-1.25,393.44512,560.18877)"
         id="g3105">
        <path
           d="m 0,0 c -0.151,0 -0.302,-0.007 -0.402,-0.022 0.014,0.201 0.029,0.898 0.029,1.444 0,0.359 -0.008,0.588 -0.029,0.789 -0.869,0.905 -1.716,1.896 -2.391,2.872 0.287,0.087 0.574,0.173 0.833,0.316 0.56,-0.919 1.421,-1.909 2.14,-2.707 0.66,0.525 1.493,1.501 1.996,2.463 0.201,0 0.416,0 0.639,0.043 C 2.276,4.337 1.084,2.915 0.402,2.319 0.373,1.874 0.359,1.673 0.359,1.235 c 0,-0.345 0,-0.934 0.043,-1.257 C 0.309,-0.007 0.151,0 0,0"
           id="path3107"
           style="fill:#231f20;fill-opacity:1;fill-rule:nonzero;stroke:none" />
      </g>
      <g
         transform="matrix(1.25,0,0,-1.25,403.44412,560.07202)"
         id="g3109">
        <path
           d="m 0,0 c -0.043,0.158 -0.144,0.352 -0.237,0.531 l -1.644,3.31 C -2.054,4.186 -2.305,4.703 -2.384,5.062 -2.599,5.026 -2.75,5.019 -3.016,5.019 -3.777,3.238 -5.256,1.587 -6.132,-0.093 l 0.697,0 1.335,2.247 c 0.043,0.072 0.129,0.165 0.294,0.165 l 0.927,0 c 0.158,0 0.668,0.014 0.847,0.108 l 1.278,-2.563 C -0.625,-0.079 -0.23,-0.007 0,0 m -2.097,2.642 c -0.28,-0.086 -0.797,-0.107 -1.191,-0.107 -0.288,0 -0.496,0 -0.496,0.093 0,0.115 0.452,0.912 0.941,1.644 l 0.746,-1.63 z"
           id="path3111"
           style="fill:#231f20;fill-opacity:1;fill-rule:nonzero;stroke:none" />
      </g>
      <g
         transform="matrix(1.25,0,0,-1.25,404.05612,553.79852)"
         id="g3113">
        <path
           d="m 0,0 0.725,0.129 c 0.833,-1.299 2.729,-2.843 3.949,-4.193 -0.021,0.438 -0.028,1.17 -0.028,2.441 0,0.46 0,1.048 -0.022,1.537 0.223,0.043 0.438,0.1 0.653,0.172 -0.035,-1.206 -0.071,-2.671 -0.071,-3.267 0,-0.703 0.007,-1.271 0.158,-1.658 -0.201,-0.115 -0.395,-0.237 -0.582,-0.359 -1.407,1.45 -2.944,2.8 -4.121,4.207 0,-0.215 0.021,-0.438 0.021,-0.675 0,-1.084 -0.143,-2.312 -0.108,-3.403 -0.172,-0.043 -0.437,-0.101 -0.646,-0.173 0.05,1.25 0.18,2.492 0.151,3.741 C 0.079,-0.718 0.05,-0.294 0,0"
           id="path3115"
           style="fill:#231f20;fill-opacity:1;fill-rule:nonzero;stroke:none" />
      </g>
      <g
         transform="matrix(1.25,0,0,-1.25,413.47912,554.12153)"
         id="g3117">
        <path
           d="m 0,0 0.244,0.388 c 0.094,-0.13 1.702,-0.173 2.075,-0.173 0.388,0 1.616,0.022 2.176,0.173 -0.05,-0.18 -0.137,-0.316 -0.237,-0.467 -0.302,-0.014 -0.697,-0.05 -1.056,-0.05 -0.186,0 -0.366,0.007 -0.517,0.014 0,-0.948 -0.028,-1.888 -0.028,-2.757 0,-0.732 0.014,-1.235 0.028,-2.025 -0.193,0.043 -0.488,0.043 -0.818,0.043 0.05,0.402 0.057,0.962 0.057,1.838 0,0.675 -0.014,2.011 -0.043,2.901 C 1.364,-0.108 0.481,-0.086 0,0"
           id="path3119"
           style="fill:#231f20;fill-opacity:1;fill-rule:nonzero;stroke:none" />
      </g>
      <g
         transform="matrix(1.25,0,0,-1.25,419.29437,554.06765)"
         id="g3121">
        <path
           d="m 0,0 0,0.215 c 0.244,0.008 1.019,0.086 1.558,0.086 1.056,0 1.989,-0.337 1.989,-1.148 0,-0.56 -0.811,-1.465 -1.429,-1.774 0.424,-0.409 1.529,-1.414 2.391,-1.946 L 3.841,-5.026 c -0.897,0.66 -1.816,1.493 -2.599,2.348 0.682,0.136 1.494,0.553 1.486,1.443 0,0.402 -0.301,1.041 -0.854,1.177 C 1.644,0 1.4,0.022 1.242,0.022 1.149,-1.02 1.113,-3.073 1.113,-4.854 0.74,-4.897 0.481,-4.897 0.28,-4.897 c 0.115,1.084 0.144,2.219 0.144,3.346 L 0.424,0 0,0 z"
           id="path3123"
           style="fill:#231f20;fill-opacity:1;fill-rule:nonzero;stroke:none" />
      </g>
      <g
         transform="matrix(1.25,0,0,-1.25,429.04175,559.60552)"
         id="g3125">
        <path
           d="m 0,0 -0.502,-0.51 c -0.266,0.029 -0.647,0.065 -1.063,0.065 -0.524,0 -1.099,-0.036 -1.501,-0.065 0.122,0.898 0.223,2.004 0.223,3.095 0,0.747 0.007,1.544 -0.144,2.104 0.582,-0.043 1.106,-0.087 1.415,-0.087 0.553,0 0.947,0.044 1.371,0.13 L -0.165,4.581 -0.596,4.265 c -0.33,0.036 -0.574,0.036 -0.783,0.036 -0.172,0 -0.466,-0.014 -0.667,-0.022 l -0.043,-1.888 1.062,0 c 0.489,0 0.761,0.057 0.977,0.129 L -0.481,1.917 C -0.703,1.96 -0.984,1.96 -1.199,1.96 l -0.926,0 C -2.154,1.314 -2.168,0.582 -2.233,-0.122 l 0.984,0 c 0.481,0 0.976,0.065 1.184,0.223 L 0,0 z"
           id="path3127"
           style="fill:#231f20;fill-opacity:1;fill-rule:nonzero;stroke:none" />
      </g>
      <g
         transform="matrix(1.25,0,0,-1.25,433.69862,559.60552)"
         id="g3129">
        <path
           d="m 0,0 -0.503,-0.51 c -0.265,0.029 -0.646,0.065 -1.062,0.065 -0.524,0 -1.099,-0.036 -1.501,-0.065 0.122,0.898 0.222,2.004 0.222,3.095 0,0.747 0.008,1.544 -0.143,2.104 0.582,-0.043 1.106,-0.087 1.414,-0.087 0.553,0 0.948,0.044 1.372,0.13 L -0.165,4.581 -0.596,4.265 c -0.33,0.036 -0.574,0.036 -0.783,0.036 -0.172,0 -0.466,-0.014 -0.667,-0.022 l -0.043,-1.888 1.062,0 c 0.488,0 0.761,0.057 0.977,0.129 L -0.481,1.917 C -0.704,1.96 -0.984,1.96 -1.199,1.96 l -0.926,0 C -2.154,1.314 -2.169,0.582 -2.233,-0.122 l 0.984,0 c 0.481,0 0.976,0.065 1.184,0.223 L 0,0 z"
           id="path3131"
           style="fill:#231f20;fill-opacity:1;fill-rule:nonzero;stroke:none" />
      </g>
    </g>
  </g>
</svg>
